<?xml version="1.0" standalone="no"?>
<!DOCTYPE svg PUBLIC "-//W3C//DTD SVG 1.1//EN" "http://www.w3.org/Graphics/SVG/1.1/DTD/svg11.dtd" >
<svg>
<metadata>
Created by FontForge 20090914 at Tue Aug 21 14:22:56 2018
 By www-data
Chalet (C) 2000 House Industries/Brand Design Co. Inc. House Industries is a registered trademark of House Industries/ Brand Design Co., Inc. 
</metadata>
<defs>
<font id="Chalet-NewYorkNineteenSeventy" horiz-adv-x="224" >
  <font-face 
    font-family="Chalet"
    font-weight="400"
    font-stretch="normal"
    units-per-em="1000"
    panose-1="0 0 5 0 0 0 0 0 0 0"
    ascent="748"
    descent="-252"
    x-height="515"
    cap-height="694"
    bbox="-46 -252 1047 956"
    underline-thickness="8"
    underline-position="-47"
    stemh="123"
    stemv="132"
    unicode-range="U+0020-U+FB04"
  />
<missing-glyph horiz-adv-x="500" 
 />
    <glyph glyph-name="ff" unicode="ff" horiz-adv-x="601" 
d="M344 387h-156v-387h-132v508c0 137 82 238 231 221v-118c-65 4 -98 -26 -99 -97h156c2 134 84 232 231 215v-118c-65 4 -98 -26 -99 -97h93v-127h-93v-387h-132v387z" />
    <glyph glyph-name="fi" unicode="fi" horiz-adv-x="552" 
d="M489 571h-133v74c0 37 30 66 67 66c36 0 66 -29 66 -66v-74zM357 387h-169v-387h-132v508c0 137 82 238 231 221v-118c-65 4 -98 -26 -99 -97h301v-514h-132v387z" />
    <glyph glyph-name="fl" unicode="fl" horiz-adv-x="601" 
d="M360 216v528h133v-528c0 -73 33 -99 98 -95v-120c-151 -16 -231 74 -231 215zM188 514h93v-127h-93v-387h-132v508c0 137 82 238 231 221v-118c-65 4 -98 -26 -99 -97z" />
    <glyph glyph-name="ffi" unicode="ffi" horiz-adv-x="845" 
d="M782 571h-133v74c0 37 30 66 67 66c36 0 66 -29 66 -66v-74zM349 387h-161v-387h-132v508c0 137 82 238 231 221v-118c-65 4 -98 -26 -99 -97h161c2 134 84 232 231 215v-118c-65 4 -98 -26 -99 -97h301v-514h-132v387h-169v-387h-132v387z" />
    <glyph glyph-name="ffl" unicode="ffl" horiz-adv-x="889" 
d="M648 216v528h133v-528c0 -73 33 -99 98 -95v-120c-151 -16 -231 74 -231 215zM344 387h-156v-387h-132v508c0 137 82 238 231 221v-118c-65 4 -98 -26 -99 -97h156c2 134 84 232 231 215v-118c-65 4 -98 -26 -99 -97h93v-127h-93v-387h-132v387z" />
    <glyph glyph-name=".notdef" horiz-adv-x="500" 
 />
    <glyph glyph-name="space" unicode=" " horiz-adv-x="308" 
 />
    <glyph glyph-name="exclam" unicode="!" horiz-adv-x="287" 
d="M210 694v-487h-132v487h132zM210 131v-131h-132v131h132z" />
    <glyph glyph-name="quotedbl" unicode="&#x22;" horiz-adv-x="373" 
d="M212 694h128l-22 -287h-85zM33 694h129l-23 -287h-84z" />
    <glyph glyph-name="numbersign" unicode="#" horiz-adv-x="538" 
d="M430 432l-25 -172h85l-14 -96h-86l-18 -127h-99l19 127h-99l-18 -127h-99l19 127h-86l14 96h85l25 172h-85l14 95h86l18 130h99l-18 -130h98l18 130h100l-19 -130h85l-14 -95h-85zM331 432h-98l-25 -172h97z" />
    <glyph glyph-name="dollar" unicode="$" horiz-adv-x="493" 
d="M275 46v-58h-65v59c-99 12 -182 81 -182 201h114c0 -52 30 -81 68 -92v152c-75 17 -173 54 -173 165c0 95 65 164 173 175v58h65v-58c106 -13 171 -87 171 -190h-115c0 39 -20 69 -56 80v-134c97 -23 185 -58 185 -174c0 -102 -69 -172 -185 -184zM210 420v119
c-36 -8 -58 -30 -58 -63c0 -26 17 -42 58 -56zM346 222c0 32 -10 54 -71 72v-140c39 7 71 28 71 68z" />
    <glyph glyph-name="percent" unicode="%" horiz-adv-x="815" 
d="M205 694c100 0 175 -78 175 -175c0 -96 -75 -174 -175 -174c-99 0 -175 78 -175 174c0 97 76 175 175 175zM163 0l381 694h107l-381 -694h-107zM609 0c-100 0 -175 78 -175 175c0 96 75 175 175 175c99 0 175 -79 175 -175c0 -97 -76 -175 -175 -175zM205 439
c42 0 76 36 76 80s-34 80 -76 80c-41 0 -75 -36 -75 -80s34 -80 75 -80zM609 255c-42 0 -76 -36 -76 -80s34 -80 76 -80c41 0 76 36 76 80s-35 80 -76 80z" />
    <glyph glyph-name="ampersand" unicode="&#x26;" horiz-adv-x="650" 
d="M487 0l-26 33c-45 -29 -99 -45 -160 -45c-148 0 -268 112 -268 250c0 78 39 149 110 202c-16 26 -30 59 -30 96c0 99 76 176 182 176s175 -74 175 -176v-14h-121v15c0 28 -16 59 -56 59c-39 0 -58 -31 -58 -58c0 -25 12 -44 29 -65l199 -253c12 36 14 79 10 130h117
c6 -94 -7 -172 -45 -233l92 -117h-150zM387 128l-172 217c-30 -24 -58 -61 -58 -107c0 -72 65 -133 144 -133c32 0 61 9 86 23z" />
    <glyph glyph-name="quotesingle" unicode="'" horiz-adv-x="195" 
d="M33 694h128l-22 -287h-85z" />
    <glyph glyph-name="parenleft" unicode="(" horiz-adv-x="325" 
d="M212 790h105c-94 -123 -152 -282 -152 -453s58 -330 152 -453h-105c-102 104 -172 281 -172 453s70 349 172 453z" />
    <glyph glyph-name="parenright" unicode=")" horiz-adv-x="325" 
d="M113 790c102 -104 172 -281 172 -453s-70 -349 -172 -453h-104c94 123 151 282 151 453s-57 330 -151 453h104z" />
    <glyph glyph-name="asterisk" unicode="*" horiz-adv-x="391" 
d="M364 507l-106 2l55 -90l-67 -39l-51 93l-51 -93l-66 39l54 90l-105 -2v77l105 -3l-55 92l67 38l51 -94l51 94l67 -38l-55 -92l106 3v-77z" />
    <glyph glyph-name="plus" unicode="+" horiz-adv-x="524" 
d="M487 215h-159v-164h-132v164h-159v123h159v163h132v-163h159v-123z" />
    <glyph glyph-name="comma" unicode="," horiz-adv-x="234" 
d="M188 141v-158c0 -90 -54 -139 -129 -147v62c41 9 62 40 62 84v18h-75v141h142z" />
    <glyph glyph-name="hyphen" unicode="-" horiz-adv-x="331" 
d="M30 216v123h271v-123h-271z" />
    <glyph glyph-name="hyphen" unicode="&#xad;" horiz-adv-x="331" 
d="M30 216v123h271v-123h-271z" />
    <glyph glyph-name="period" unicode="." horiz-adv-x="234" 
d="M188 141v-141h-142v141h142z" />
    <glyph glyph-name="slash" unicode="/" horiz-adv-x="337" 
d="M2 0l211 744h137l-211 -744h-137z" />
    <glyph glyph-name="zero" unicode="0" horiz-adv-x="749" 
d="M375 711c196 0 339 -160 339 -361c0 -202 -143 -362 -339 -362c-197 0 -340 160 -340 362c0 201 143 361 340 361zM375 113c114 0 206 107 206 237c0 129 -92 236 -206 236c-115 0 -207 -107 -207 -236c0 -130 92 -237 207 -237z" />
    <glyph glyph-name="one" unicode="1" horiz-adv-x="386" 
d="M250 694v-694h-132v571h-80v123h212z" />
    <glyph glyph-name="two" unicode="2" horiz-adv-x="541" 
d="M274 123h220v-123h-484l263 308c80 95 93 126 93 181c0 36 -27 90 -101 90s-108 -54 -108 -114h-132c0 146 105 246 240 246s233 -100 233 -222c0 -100 -38 -159 -130 -261z" />
    <glyph glyph-name="three" unicode="3" horiz-adv-x="572" 
d="M538 244c0 -149 -109 -257 -259 -257s-249 97 -264 207h135c15 -45 60 -75 129 -75c77 0 127 49 127 125c0 77 -48 122 -130 128c-42 3 -83 -1 -122 -6l136 205h-230v123h467l-166 -231c107 -20 177 -97 177 -219z" />
    <glyph glyph-name="four" unicode="4" horiz-adv-x="545" 
d="M515 142h-74v-142h-123v142h-303v116l272 436h154v-436h74v-116zM318 258v275l-172 -275h172z" />
    <glyph glyph-name="five" unicode="5" horiz-adv-x="581" 
d="M550 244c0 -149 -110 -257 -260 -257c-81 0 -156 30 -205 82c-32 34 -52 77 -58 124h134c15 -50 64 -83 129 -83c77 0 127 55 127 134c0 89 -64 133 -127 133c-45 0 -91 -22 -119 -63h-131l86 380h372v-123h-272l-25 -98c36 19 72 26 105 26c130 0 244 -105 244 -255z
" />
    <glyph glyph-name="six" unicode="6" horiz-adv-x="566" 
d="M537 240c0 -139 -109 -252 -253 -252c-143 0 -251 113 -251 252c0 58 25 117 59 177l152 277h151l-116 -210c152 9 258 -109 258 -244zM405 240c0 69 -54 124 -121 124c-66 0 -120 -55 -120 -124c0 -68 54 -123 120 -123c67 0 121 55 121 123z" />
    <glyph glyph-name="seven" unicode="7" horiz-adv-x="523" 
d="M515 694l-317 -694h-140l262 571h-303v123h498z" />
    <glyph glyph-name="eight" unicode="8" horiz-adv-x="548" 
d="M519 233c0 -135 -107 -245 -245 -245c-139 0 -245 110 -245 245c0 85 44 153 110 192c-30 27 -49 66 -49 112c0 89 80 174 184 174s184 -85 184 -174c0 -46 -19 -85 -50 -112c67 -39 111 -107 111 -192zM214 530c0 -35 27 -62 60 -62s60 27 60 62c0 34 -27 61 -60 61
s-60 -27 -60 -61zM386 233c0 65 -50 118 -112 118s-113 -53 -113 -118c0 -66 51 -119 113 -119s112 53 112 119z" />
    <glyph glyph-name="nine" unicode="9" horiz-adv-x="565" 
d="M532 458c0 -55 -22 -111 -56 -172l-157 -286h-151l118 214c-152 -9 -258 109 -258 244c0 139 109 252 253 252c143 0 251 -113 251 -252zM401 458c0 68 -54 124 -120 124c-67 0 -121 -56 -121 -124c0 -69 54 -124 121 -124c66 0 120 55 120 124z" />
    <glyph glyph-name="colon" unicode=":" horiz-adv-x="245" 
d="M194 497v-141h-142v141h142zM194 141v-141h-142v141h142z" />
    <glyph glyph-name="semicolon" unicode=";" horiz-adv-x="245" 
d="M194 497v-141h-142v141h142zM126 0h-74v141h142v-158c0 -90 -54 -139 -129 -147v62c41 9 61 40 61 84v18z" />
    <glyph glyph-name="less" unicode="&#x3c;" horiz-adv-x="449" 
d="M418 384l-257 -108l257 -109v-135l-387 178v131l387 179v-136z" />
    <glyph glyph-name="equal" unicode="=" horiz-adv-x="505" 
d="M468 450v-123h-431v123h431zM468 225v-122h-431v122h431z" />
    <glyph glyph-name="greater" unicode="&#x3e;" horiz-adv-x="450" 
d="M419 341v-131l-388 -178v135l257 109l-257 108v136z" />
    <glyph glyph-name="question" unicode="?" horiz-adv-x="552" 
d="M164 484h-131c0 134 92 226 240 226c147 0 233 -85 233 -203c0 -82 -51 -131 -117 -175c-46 -31 -64 -59 -64 -102v-23h-121v23c0 105 57 150 109 187c45 32 62 55 62 90c0 48 -38 82 -102 82c-72 0 -109 -46 -109 -105zM330 131v-131h-132v131h132z" />
    <glyph glyph-name="at" unicode="@" horiz-adv-x="745" 
d="M594 153h119c-68 -108 -170 -166 -315 -166c-206 0 -367 153 -367 361c0 205 159 362 356 362c163 0 327 -97 327 -299c0 -131 -86 -239 -194 -239c-47 0 -82 22 -101 54c-28 -36 -64 -56 -103 -56c-83 0 -135 83 -102 196c26 90 103 159 173 159c32 0 59 -15 73 -42
l8 26h90l-60 -194c-11 -35 5 -52 26 -52c50 0 91 70 91 145c0 148 -117 212 -228 212c-142 0 -257 -122 -257 -272c0 -154 115 -270 268 -270c82 0 153 31 196 75zM416 349c15 47 3 84 -27 84c-29 0 -65 -35 -81 -84c-14 -46 -3 -84 27 -84s66 38 81 84z" />
    <glyph glyph-name="A" unicode="A" horiz-adv-x="626" 
d="M565 460v-460h-132v194h-239v-194h-132v460c0 71 25 135 70 180c46 46 110 71 181 71c72 0 136 -25 182 -71c45 -45 70 -109 70 -180zM433 321v142c0 74 -45 119 -120 119c-74 0 -119 -45 -119 -119v-142h239z" />
    <glyph glyph-name="B" unicode="B" horiz-adv-x="580" 
d="M550 204c0 -124 -83 -204 -217 -204h-271v487c0 60 23 117 65 158c43 43 101 66 163 66c132 0 228 -84 228 -205c0 -59 -25 -105 -61 -135c59 -31 93 -88 93 -167zM194 487v-64h110c8 0 81 2 81 77c0 58 -45 82 -95 82c-56 0 -96 -42 -96 -95zM414 210
c0 58 -37 90 -103 90h-117v-177h119c52 0 101 19 101 87z" />
    <glyph glyph-name="C" unicode="C" horiz-adv-x="708" 
d="M684 220c-44 -141 -161 -232 -315 -232c-189 0 -336 159 -336 362s147 362 336 362c157 0 273 -89 316 -231h-143c-31 63 -93 110 -173 110c-114 0 -204 -110 -204 -241c0 -132 90 -242 204 -242c79 0 142 49 173 112h142z" />
    <glyph glyph-name="D" unicode="D" horiz-adv-x="667" 
d="M634 347c0 -212 -123 -347 -313 -347h-257v694h257c193 0 313 -133 313 -347zM502 348c0 102 -32 223 -181 223h-125v-448h125c157 0 181 141 181 225z" />
    <glyph glyph-name="E" unicode="E" horiz-adv-x="565" 
d="M194 476v-67h281v-123h-281v-67c0 -64 25 -89 88 -89h244v-130h-245c-143 0 -219 88 -219 221v252c0 133 76 221 219 221h245v-130h-244c-63 0 -88 -24 -88 -88z" />
    <glyph glyph-name="F" unicode="F" horiz-adv-x="518" 
d="M194 476v-69h246v-123h-246v-284h-132v473c0 133 76 221 218 221h212v-130h-211c-63 0 -87 -24 -87 -88z" />
    <glyph glyph-name="G" unicode="G" horiz-adv-x="739" 
d="M370 -12c-189 0 -337 159 -337 362s148 362 337 362c154 0 271 -88 315 -231h-142c-33 65 -93 110 -173 110c-115 0 -205 -110 -205 -241c0 -132 90 -242 205 -242c99 0 171 71 190 155h-172v123h317c8 -244 -137 -398 -335 -398z" />
    <glyph glyph-name="H" unicode="H" horiz-adv-x="640" 
d="M576 694v-694h-132v293h-247v-293h-133v694h133v-278h247v278h132z" />
    <glyph glyph-name="I" unicode="I" horiz-adv-x="265" 
d="M199 694v-694h-132v694h132z" />
    <glyph glyph-name="J" unicode="J" horiz-adv-x="429" 
d="M149 0h-132v130h131c62 0 87 27 87 91v473h132v-475c0 -133 -76 -219 -218 -219z" />
    <glyph glyph-name="K" unicode="K" horiz-adv-x="630" 
d="M494 347c47 -28 73 -75 73 -147v-200h-132v197c0 61 -28 89 -90 89h-148v-286h-133v694h133v-285h148c62 0 90 28 90 89v196h132v-200c0 -71 -26 -119 -73 -147z" />
    <glyph glyph-name="L" unicode="L" horiz-adv-x="507" 
d="M280 0c-142 0 -218 86 -218 219v475h132v-473c0 -64 24 -91 87 -91h209v-130h-210z" />
    <glyph glyph-name="M" unicode="M" horiz-adv-x="996" 
d="M935 461v-461h-132v463c0 66 -48 119 -120 119c-73 0 -118 -53 -118 -119v-463h-133v463c0 66 -47 119 -119 119c-73 0 -120 -53 -120 -119v-463h-131v461c0 139 103 250 251 250c77 0 142 -35 185 -90c42 55 109 90 185 90c149 0 252 -111 252 -250z" />
    <glyph glyph-name="N" unicode="N" horiz-adv-x="626" 
d="M313 711c72 0 136 -25 182 -71c45 -45 70 -109 70 -180v-460h-132v463c0 74 -45 119 -120 119c-74 0 -119 -45 -119 -119v-463h-132v460c0 71 25 135 70 180c46 46 110 71 181 71z" />
    <glyph glyph-name="O" unicode="O" horiz-adv-x="745" 
d="M373 711c196 0 339 -160 339 -361c0 -202 -143 -362 -339 -362c-197 0 -340 160 -340 362c0 201 143 361 340 361zM373 113c114 0 206 107 206 237c0 129 -92 236 -206 236c-115 0 -207 -107 -207 -236c0 -130 92 -237 207 -237z" />
    <glyph glyph-name="P" unicode="P" horiz-adv-x="604" 
d="M579 457c0 -145 -119 -255 -249 -255h-136v-202h-132v457c0 140 112 254 258 254c147 0 259 -114 259 -254zM447 454c0 73 -57 132 -127 132c-69 0 -126 -59 -126 -132v-131h126c70 0 127 59 127 131z" />
    <glyph glyph-name="Q" unicode="Q" horiz-adv-x="744" 
d="M435 -6v-111h-126v111c-163 30 -276 176 -276 356c0 201 142 361 339 361c196 0 339 -160 339 -361c0 -180 -113 -326 -276 -356zM579 350c0 129 -93 236 -207 236s-207 -107 -207 -236c0 -105 58 -198 144 -228v96h126v-96c86 30 144 123 144 228z" />
    <glyph glyph-name="R" unicode="R" horiz-adv-x="604" 
d="M538 210v-210h-132v204c0 27 -17 46 -46 46h-165v-250h-133v465c0 66 24 128 66 173c45 47 108 73 178 73c138 0 245 -102 245 -224c0 -73 -28 -127 -72 -163c37 -23 59 -60 59 -114zM309 371c70 0 109 42 109 107c0 60 -45 106 -110 106c-74 0 -113 -55 -113 -119v-94
h114z" />
    <glyph glyph-name="S" unicode="S" horiz-adv-x="520" 
d="M513 569c-54 0 -100 -15 -125 -37c-34 -31 -57 -77 -57 -185c0 -97 -12 -207 -104 -283c-54 -45 -128 -65 -219 -64v125c47 0 101 9 136 38c33 28 55 73 55 184c0 133 31 219 103 281c50 45 123 66 211 67v-126z" />
    <glyph glyph-name="T" unicode="T" horiz-adv-x="536" 
d="M520 571h-186v-571h-132v571h-186v123h504v-123z" />
    <glyph glyph-name="U" unicode="U" horiz-adv-x="626" 
d="M313 -12c-71 0 -135 25 -181 70c-45 46 -70 110 -70 181v455h132v-457c0 -75 45 -120 119 -120c75 0 120 45 120 120v457h132v-455c0 -71 -25 -135 -70 -181c-46 -45 -110 -70 -182 -70z" />
    <glyph glyph-name="V" unicode="V" horiz-adv-x="604" 
d="M600 694l-227 -694h-142l-228 694h140l159 -535l158 535h140z" />
    <glyph glyph-name="W" unicode="W" horiz-adv-x="996" 
d="M935 694v-456c0 -139 -103 -250 -252 -250c-76 0 -143 35 -185 90c-43 -55 -108 -90 -185 -90c-148 0 -251 111 -251 250v456h131v-457c0 -66 47 -120 120 -120c72 0 119 54 119 120v457h133v-457c0 -66 47 -120 118 -120c72 0 120 54 120 120v457h132z" />
    <glyph glyph-name="X" unicode="X" horiz-adv-x="628" 
d="M485 353c50 -35 80 -92 80 -175v-178h-132v172c0 74 -44 119 -119 119s-119 -45 -119 -119v-172h-132v178c0 83 30 140 81 175c-51 35 -81 91 -81 175v166h132v-161c0 -74 44 -119 119 -119s119 45 119 119v161h132v-166c0 -84 -30 -140 -80 -175z" />
    <glyph glyph-name="Y" unicode="Y" horiz-adv-x="613" 
d="M558 694v-192c0 -72 -25 -136 -70 -181c-31 -31 -71 -53 -115 -63v-258h-133v258c-44 10 -84 32 -115 63c-45 45 -70 109 -70 181v192h133v-195c0 -75 44 -119 119 -119c74 0 119 44 119 119v195h132z" />
    <glyph glyph-name="Z" unicode="Z" horiz-adv-x="550" 
d="M524 123v-123h-499v118l336 453h-325v123h480v-117l-336 -454h344z" />
    <glyph glyph-name="bracketleft" unicode="[" horiz-adv-x="317" 
d="M182 711v-724h122v-108h-240v940h240v-108h-122z" />
    <glyph glyph-name="backslash" unicode="\" horiz-adv-x="338" 
d="M335 0h-137l-211 744h138z" />
    <glyph glyph-name="bracketright" unicode="]" horiz-adv-x="337" 
d="M273 819v-940h-250v108h127v724h-127v108h250z" />
    <glyph glyph-name="asciicircum" unicode="^" horiz-adv-x="554" 
d="M389 258l-112 305l-112 -305h-132l179 436h130l179 -436h-132z" />
    <glyph glyph-name="underscore" unicode="_" horiz-adv-x="806" 
d="M808 -70v-123h-810v123h810z" />
    <glyph glyph-name="grave" unicode="`" horiz-adv-x="417" 
d="M74 723h147l93 -141h-97z" />
    <glyph glyph-name="a" unicode="a" horiz-adv-x="615" 
d="M559 257v-257h-125v54c-39 -43 -95 -65 -157 -65c-136 0 -247 120 -247 268c0 149 109 271 265 271c155 0 264 -122 264 -271zM427 256c0 82 -59 148 -132 148s-132 -63 -132 -148c0 -82 59 -145 132 -145s132 65 132 145z" />
    <glyph glyph-name="b" unicode="b" horiz-adv-x="606" 
d="M576 257c0 -149 -109 -269 -264 -269c-156 0 -265 120 -265 269v487h133v-278c39 41 90 60 150 60c136 0 246 -121 246 -269zM444 256c0 85 -59 148 -132 148s-132 -66 -132 -148c0 -80 59 -145 132 -145s132 63 132 145z" />
    <glyph glyph-name="c" unicode="c" horiz-adv-x="571" 
d="M545 174c-30 -117 -124 -186 -249 -186c-155 0 -266 120 -266 269s111 271 266 271c124 0 218 -70 248 -186h-141c-18 35 -59 65 -107 65c-73 0 -132 -68 -132 -151c0 -81 59 -148 132 -148c49 0 91 30 108 66h141z" />
    <glyph glyph-name="d" unicode="d" horiz-adv-x="605" 
d="M559 744v-487c0 -149 -109 -269 -264 -269c-156 0 -265 120 -265 269c0 148 111 269 246 269c61 0 111 -19 151 -60v278h132zM427 256c0 82 -59 148 -132 148s-132 -63 -132 -148c0 -82 59 -145 132 -145s132 65 132 145z" />
    <glyph glyph-name="e" unicode="e" horiz-adv-x="579" 
d="M402 164h141c-30 -105 -121 -176 -249 -176c-146 0 -264 120 -264 269s118 271 264 271c124 0 228 -78 253 -216l-364 -153c26 -35 65 -55 110 -55c43 0 87 19 109 60zM153 264l242 102c-24 29 -60 46 -102 46c-76 0 -137 -60 -140 -148z" />
    <glyph glyph-name="f" unicode="f" horiz-adv-x="312" 
d="M188 513h93v-117h-93v-397h-132v508c0 137 82 239 230 222v-124c-63 5 -97 -21 -98 -92z" />
    <glyph glyph-name="g" unicode="g" horiz-adv-x="612" 
d="M559 257v-231c0 -171 -102 -278 -267 -278c-124 0 -230 71 -250 180h144c17 -41 70 -57 106 -57c93 0 135 61 135 153v23c-39 -38 -92 -58 -150 -58c-136 0 -247 120 -247 268c0 149 109 271 265 271c155 0 264 -122 264 -271zM427 256c0 82 -59 148 -132 148
s-132 -63 -132 -148c0 -82 59 -145 132 -145s132 65 132 145z" />
    <glyph glyph-name="h" unicode="h" horiz-adv-x="577" 
d="M521 301v-301h-132v301c0 30 -10 98 -96 98c-59 0 -100 -40 -100 -98v-301h-133v744h133v-256c33 25 73 40 118 40c126 0 210 -91 210 -227z" />
    <glyph glyph-name="i" unicode="i" horiz-adv-x="259" 
d="M196 571h-133v74c0 37 30 66 67 66c36 0 66 -29 66 -66v-74zM196 515v-515h-132v515h132z" />
    <glyph glyph-name="j" unicode="j" horiz-adv-x="239" 
d="M187 571h-132v74c0 37 29 66 65 66c37 0 67 -29 67 -66v-74zM187 515v-578c0 -135 -82 -182 -212 -164v117c53 -5 80 10 80 62v563h132z" />
    <glyph glyph-name="k" unicode="k" horiz-adv-x="563" 
d="M422 258c57 -29 88 -85 88 -153v-105h-133v83c0 57 -31 111 -111 111h-73v-194h-133v744h133v-423h73c80 0 111 55 111 112v82h133v-105c0 -67 -31 -124 -88 -152z" />
    <glyph glyph-name="l" unicode="l" horiz-adv-x="293" 
d="M52 216v528h133v-528c0 -73 33 -99 98 -95v-120c-151 -16 -231 74 -231 215z" />
    <glyph glyph-name="m" unicode="m" horiz-adv-x="901" 
d="M845 298v-298h-132v301c0 29 -10 98 -97 98c-58 0 -100 -40 -100 -98v-301h-132v301c0 29 -9 98 -96 98c-59 0 -100 -40 -100 -98v-301h-132v298c0 131 91 230 232 230c70 0 127 -28 164 -73c39 45 97 73 164 73c144 0 229 -95 229 -230z" />
    <glyph glyph-name="n" unicode="n" horiz-adv-x="573" 
d="M56 298c0 131 92 230 232 230c144 0 229 -95 229 -230v-298h-132v301c0 29 -10 98 -97 98c-58 0 -100 -40 -100 -98v-301h-132v298z" />
    <glyph glyph-name="o" unicode="o" horiz-adv-x="579" 
d="M289 528c143 0 260 -117 260 -271s-117 -269 -260 -269s-259 115 -259 269s116 271 259 271zM289 109c70 0 127 60 127 147c0 89 -57 151 -127 151s-127 -62 -127 -151c0 -87 57 -147 127 -147z" />
    <glyph glyph-name="p" unicode="p" horiz-adv-x="606" 
d="M576 259c0 -149 -110 -270 -246 -270c-60 0 -111 20 -150 60v-278h-133v488c0 148 109 269 265 269c155 0 264 -121 264 -269zM444 259c0 83 -59 145 -132 145s-132 -65 -132 -145c0 -82 59 -148 132 -148s132 64 132 148z" />
    <glyph glyph-name="q" unicode="q" horiz-adv-x="605" 
d="M559 259v-488h-132v278c-40 -40 -90 -60 -151 -60c-135 0 -246 121 -246 270c0 148 109 269 265 269c155 0 264 -121 264 -269zM427 259c0 80 -59 145 -132 145s-132 -62 -132 -145c0 -84 59 -148 132 -148s132 66 132 148z" />
    <glyph glyph-name="r" unicode="r" horiz-adv-x="344" 
d="M328 525v-124c-84 15 -140 -30 -140 -103v-298h-132v298c0 146 101 248 272 227z" />
    <glyph glyph-name="s" unicode="s" horiz-adv-x="371" 
d="M10 0v128c34 -3 64 0 83 19c13 12 26 36 26 111c0 68 7 146 67 203c43 42 100 59 174 53v-128c-37 4 -64 -3 -83 -22c-12 -13 -26 -32 -26 -106c0 -68 -7 -153 -66 -208c-43 -41 -102 -55 -175 -50z" />
    <glyph glyph-name="t" unicode="t" horiz-adv-x="318" 
d="M284 121v-120c-151 -16 -231 75 -231 216v429h132v-131h93v-117h-93v-182c0 -72 33 -99 99 -95z" />
    <glyph glyph-name="u" unicode="u" horiz-adv-x="573" 
d="M517 218c0 -131 -92 -230 -232 -230c-144 0 -229 95 -229 230v297h132v-301c0 -29 10 -98 97 -98c58 0 100 41 100 98v301h132v-297z" />
    <glyph glyph-name="v" unicode="v" horiz-adv-x="533" 
d="M532 515l-194 -515h-142l-195 515h138l128 -384l129 384h136z" />
    <glyph glyph-name="w" unicode="w" horiz-adv-x="901" 
d="M845 515v-297c0 -131 -92 -231 -232 -231c-70 0 -127 28 -165 73c-39 -45 -96 -73 -164 -73c-143 0 -228 95 -228 231v297h132v-301c0 -29 10 -98 96 -98c59 0 100 40 100 98v301h132v-301c0 -29 10 -98 97 -98c58 0 100 40 100 98v301h132z" />
    <glyph glyph-name="x" unicode="x" horiz-adv-x="549" 
d="M423 258c44 -38 71 -95 71 -164v-94h-132v101c0 58 -36 98 -88 98c-51 0 -87 -40 -87 -98v-101h-132v94c0 71 24 127 66 164c-42 37 -66 93 -66 164v93h132v-100c0 -58 36 -98 87 -98c52 0 88 40 88 98v100h132v-93c0 -70 -27 -126 -71 -164z" />
    <glyph glyph-name="y" unicode="y" horiz-adv-x="572" 
d="M516 515v-536c0 -139 -91 -231 -229 -231c-113 0 -206 74 -224 180h137c8 -38 42 -57 87 -57c72 0 97 51 97 99v60c-31 -26 -71 -42 -118 -42c-126 0 -210 91 -210 226v301h132v-301c0 -29 10 -101 96 -101c59 0 100 43 100 101v301h132z" />
    <glyph glyph-name="z" unicode="z" horiz-adv-x="493" 
d="M471 119v-119h-450v114l272 282h-261v119h430v-118l-267 -278h276z" />
    <glyph glyph-name="braceleft" unicode="{" horiz-adv-x="334" 
d="M312 798v-97c-54 4 -77 -31 -77 -80v-131c0 -73 -26 -122 -76 -145c50 -25 76 -72 76 -146v-131c0 -49 23 -84 77 -80v-98c-121 -11 -196 45 -196 173v125c0 80 -40 109 -97 109v95c57 0 97 30 97 110v125c0 127 75 183 196 171z" />
    <glyph glyph-name="bar" unicode="|" horiz-adv-x="268" 
d="M200 0h-132v744h132v-744z" />
    <glyph glyph-name="braceright" unicode="}" horiz-adv-x="334" 
d="M315 392v-95c-57 0 -97 -29 -97 -109v-125c0 -128 -75 -184 -195 -173v98c53 -4 76 31 76 80v131c0 74 26 121 76 146c-50 23 -76 72 -76 145v131c0 49 -23 84 -76 80v97c120 12 195 -44 195 -171v-125c0 -80 40 -110 97 -110z" />
    <glyph glyph-name="asciitilde" unicode="~" horiz-adv-x="431" 
d="M391 730c-8 -61 -42 -119 -104 -119c-59 0 -102 37 -141 37c-23 0 -38 -12 -45 -41h-61c9 60 42 118 109 118c58 0 101 -37 138 -37c22 0 35 12 43 42h61z" />
    <glyph glyph-name="uni00A0" unicode="&#xa0;" horiz-adv-x="308" 
 />
    <glyph glyph-name="exclamdown" unicode="&#xa1;" horiz-adv-x="287" 
d="M78 564v131h132v-131h-132zM78 0v488h132v-488h-132z" />
    <glyph glyph-name="cent" unicode="&#xa2;" horiz-adv-x="535" 
d="M506 186c-26 -114 -113 -191 -232 -191c-17 0 -33 2 -49 5l-33 -110h-68l40 131c-82 42 -134 131 -134 240c0 152 102 266 244 266c15 0 29 -2 43 -4l33 108h68l-39 -127c62 -31 107 -89 126 -163h-121c-9 22 -23 39 -39 52l-87 -285c6 -1 12 -2 18 -2c51 0 91 31 110 80
h120zM199 136l85 279h-8c-73 0 -126 -65 -126 -154c0 -53 19 -98 49 -125z" />
    <glyph glyph-name="sterling" unicode="&#xa3;" horiz-adv-x="543" 
d="M507 126v-126h-464v123c49 0 72 25 72 89v88h-72v123h72v50c0 133 77 221 219 221h146v-127h-145c-63 0 -87 -24 -87 -89v-55h153v-123h-153v-61c0 -56 -13 -90 -40 -113h299z" />
    <glyph glyph-name="currency" unicode="&#xa4;" horiz-adv-x="656" 
d="M646 171c-45 -106 -135 -171 -262 -171c-133 0 -243 87 -284 212h-75v75h59c-1 11 -2 23 -2 35c0 8 1 16 1 25h-58v74h72c40 129 156 221 298 221c95 0 175 -34 232 -99l-56 -90c-34 50 -95 85 -172 85c-82 0 -148 -47 -180 -117h333l-46 -74h-307c-1 -8 -1 -17 -1 -25
c0 -12 1 -24 2 -35h269l-46 -75h-201c31 -66 91 -108 162 -108c64 0 106 22 138 67h124z" />
    <glyph glyph-name="yen" unicode="&#xa5;" horiz-adv-x="601" 
d="M475 465h80v-74h-120l-56 -102h161v-75h-173v-214h-133v214h-173v75h161l-56 102h-120v74h80l-125 229h149l150 -297l151 297h149z" />
    <glyph glyph-name="section" unicode="&#xa7;" horiz-adv-x="527" 
d="M431 238c19 -22 30 -50 30 -90c0 -92 -72 -162 -202 -162c-124 0 -204 76 -204 178h115c0 -39 36 -73 91 -73c56 0 87 21 87 50c0 30 -17 42 -113 59c-117 20 -202 54 -202 149c0 44 20 89 70 120c-20 23 -30 52 -30 91c2 88 79 154 196 154c116 0 188 -69 187 -168h-116
c1 42 -35 62 -72 62c-39 0 -78 -15 -79 -48c0 -29 24 -39 83 -50c107 -22 222 -39 222 -157c0 -47 -19 -87 -63 -115zM267 303c18 -3 37 -7 55 -10c33 7 60 21 60 47c0 38 -48 49 -130 63c-16 3 -31 6 -45 10c-39 -10 -59 -28 -59 -48c0 -34 41 -51 119 -62z" />
    <glyph glyph-name="dieresis" unicode="&#xa8;" horiz-adv-x="417" 
d="M357 602h-110v108h110v-108zM169 602h-110v108h110v-108z" />
    <glyph glyph-name="copyright" unicode="&#xa9;" horiz-adv-x="783" 
d="M392 711c199 0 361 -162 361 -361c0 -200 -162 -362 -361 -362c-200 0 -362 162 -362 362c0 199 162 361 362 361zM392 82c145 0 262 120 262 268s-117 268 -262 268s-263 -120 -263 -268s118 -268 263 -268zM567 295c-21 -80 -89 -138 -175 -138
c-105 0 -185 86 -185 193c0 106 80 192 185 192c88 0 155 -57 176 -138h-102c-14 28 -39 46 -74 46c-48 0 -87 -45 -87 -100s39 -100 87 -100c34 0 59 18 73 45h102z" />
    <glyph glyph-name="ordfeminine" unicode="&#xaa;" horiz-adv-x="403" 
d="M347 549v-154h-74v33c-24 -26 -57 -40 -95 -40c-81 0 -148 72 -148 161s66 162 159 162s158 -73 158 -162zM268 549c0 49 -35 88 -79 88s-80 -38 -80 -88s36 -87 80 -87s79 38 79 87z" />
    <glyph glyph-name="guillemotleft" unicode="&#xab;" horiz-adv-x="423" 
d="M393 380l-100 -80l100 -82v-105l-158 137v99l158 136v-105zM23 349l158 136v-105l-100 -80l100 -82v-105l-158 137v99z" />
    <glyph glyph-name="logicalnot" unicode="&#xac;" 
d="M178 413v-131h-132v131h132z" />
    <glyph glyph-name="registered" unicode="&#xae;" horiz-adv-x="783" 
d="M753 350c0 -200 -162 -362 -361 -362c-200 0 -362 162 -362 362c0 199 162 361 362 361c199 0 361 -162 361 -361zM654 350c0 147 -117 268 -262 268s-263 -121 -263 -268c0 -148 118 -268 263 -268s262 120 262 268zM499 303l69 -128h-110l-54 108h-50v-108h-98v369h176
c86 0 133 -53 133 -132c0 -51 -26 -89 -66 -109zM354 370h72c26 0 39 17 39 42c0 26 -12 42 -39 42h-72v-84z" />
    <glyph glyph-name="macron" unicode="&#xaf;" horiz-adv-x="403" 
d="M40 595v87h323v-87h-323z" />
    <glyph glyph-name="macron" unicode="&#x2c9;" horiz-adv-x="403" 
d="M40 595v87h323v-87h-323z" />
    <glyph glyph-name="degree" unicode="&#xb0;" horiz-adv-x="369" 
d="M184 692c85 0 154 -69 154 -153c0 -85 -69 -154 -154 -154s-153 69 -153 154c0 84 68 153 153 153zM184 461c42 0 77 35 77 78c0 42 -35 77 -77 77s-77 -35 -77 -77c0 -43 35 -78 77 -78z" />
    <glyph glyph-name="twosuperior" unicode="&#xb2;" horiz-adv-x="356" 
d="M174 340h136v-76h-300l163 191c50 58 58 78 58 112c0 22 -16 56 -62 56s-67 -34 -67 -71h-82c0 91 65 153 149 153c83 0 144 -62 144 -138c0 -62 -24 -99 -80 -162z" />
    <glyph glyph-name="threesuperior" unicode="&#xb3;" horiz-adv-x="373" 
d="M339 415c0 -92 -67 -160 -161 -160c-93 0 -154 61 -163 129h84c9 -28 36 -46 79 -46c48 0 79 30 79 77c0 48 -30 76 -80 80c-26 1 -52 -1 -76 -5l84 128h-142v76h289l-103 -143c66 -13 110 -61 110 -136z" />
    <glyph glyph-name="acute" unicode="&#xb4;" horiz-adv-x="417" 
d="M334 723l-144 -141h-97l93 141h148z" />
    <glyph glyph-name="mu" unicode="&#xb5;" 
d="M178 413v-131h-132v131h132z" />
    <glyph glyph-name="mu" unicode="&#x3bc;" 
d="M178 413v-131h-132v131h132z" />
    <glyph glyph-name="paragraph" unicode="&#xb6;" horiz-adv-x="611" 
d="M547 694v-694h-104v594h-75v-594h-104v248h-13c-137 0 -226 93 -226 222c0 136 83 224 229 224h293z" />
    <glyph glyph-name="periodcentered" unicode="&#xb7;" 
d="M178 413v-131h-132v131h132z" />
    <glyph glyph-name="periodcentered" unicode="&#x2219;" 
d="M178 413v-131h-132v131h132z" />
    <glyph glyph-name="cedilla" unicode="&#xb8;" horiz-adv-x="308" 
d="M268 -131c0 -58 -54 -90 -114 -90c-49 0 -85 17 -114 40l17 36c73 -40 131 -25 131 11s-46 43 -78 28l-38 23l41 83h65l-41 -60c49 22 131 4 131 -71z" />
    <glyph glyph-name="onesuperior" unicode="&#xb9;" horiz-adv-x="247" 
d="M159 694v-430h-81v354h-50v76h131z" />
    <glyph glyph-name="ordmasculine" unicode="&#xba;" horiz-adv-x="371" 
d="M186 711c86 0 155 -70 155 -162s-69 -161 -155 -161s-156 69 -156 161s70 162 156 162zM186 460c42 0 76 36 76 89s-34 90 -76 90s-76 -37 -76 -90s34 -89 76 -89z" />
    <glyph glyph-name="guillemotright" unicode="&#xbb;" horiz-adv-x="422" 
d="M399 349v-99l-158 -137v105l100 82l-100 80v105zM29 485l158 -136v-99l-158 -137v105l100 82l-100 80v105z" />
    <glyph glyph-name="onequarter" unicode="&#xbc;" horiz-adv-x="720" 
d="M78 264v354h-50v76h132v-430h-82zM571 694l-408 -706h-83l407 706h84zM690 88h-45v-88h-77v88h-187v72l168 270h96v-270h45v-72zM568 160v170l-106 -170h106z" />
    <glyph glyph-name="onehalf" unicode="&#xbd;" horiz-adv-x="786" 
d="M78 264v354h-50v76h131v-430h-81zM570 694l-407 -706h-84l408 706h83zM604 76h137v-76h-300l162 191c50 59 59 78 59 112c0 22 -17 56 -63 56s-67 -34 -67 -70h-82c0 90 66 152 149 152s144 -62 144 -138c0 -62 -23 -98 -80 -162z" />
    <glyph glyph-name="threequarters" unicode="&#xbe;" horiz-adv-x="847" 
d="M179 255c-93 0 -155 61 -164 129h84c10 -28 37 -46 80 -46c48 0 79 30 79 77c0 48 -30 76 -81 80c-26 1 -51 -1 -75 -5l84 128h-143v76h290l-103 -143c66 -13 109 -61 109 -136c0 -92 -67 -160 -160 -160zM697 694l-408 -706h-83l407 706h84zM817 88h-46v-88h-77v88h-187
v72l168 270h96v-270h46v-72zM694 160v170l-106 -170h106z" />
    <glyph glyph-name="questiondown" unicode="&#xbf;" horiz-adv-x="552" 
d="M221 567v131h133v-131h-133zM388 214h130c0 -134 -91 -227 -240 -227c-147 0 -232 86 -232 204c0 82 50 131 117 175c45 31 63 59 63 102v23h122v-23c0 -105 -57 -150 -110 -187c-44 -32 -61 -55 -61 -90c0 -48 38 -82 101 -82c72 0 110 46 110 105z" />
    <glyph glyph-name="Agrave" unicode="&#xc0;" horiz-adv-x="626" 
d="M130 893h148l93 -141h-97zM565 460v-460h-132v194h-239v-194h-132v460c0 71 25 135 70 180c46 46 110 71 181 71c72 0 136 -25 182 -71c45 -45 70 -109 70 -180zM433 321v142c0 74 -45 119 -120 119c-74 0 -119 -45 -119 -119v-142h239z" />
    <glyph glyph-name="Aacute" unicode="&#xc1;" horiz-adv-x="626" 
d="M510 893l-144 -141h-97l93 141h148zM565 460v-460h-132v194h-239v-194h-132v460c0 71 25 135 70 180c46 46 110 71 181 71c72 0 136 -25 182 -71c45 -45 70 -109 70 -180zM433 321v142c0 74 -45 119 -120 119c-74 0 -119 -45 -119 -119v-142h239z" />
    <glyph glyph-name="Acircumflex" unicode="&#xc2;" horiz-adv-x="626" 
d="M256 752h-109l111 142h119l110 -142h-108l-62 83zM565 460v-460h-132v194h-239v-194h-132v460c0 71 25 135 70 180c46 46 110 71 181 71c72 0 136 -25 182 -71c45 -45 70 -109 70 -180zM433 321v142c0 74 -45 119 -120 119c-74 0 -119 -45 -119 -119v-142h239z" />
    <glyph glyph-name="Atilde" unicode="&#xc3;" horiz-adv-x="626" 
d="M504 882c-8 -61 -42 -119 -104 -119c-59 0 -102 37 -141 37c-23 0 -38 -12 -45 -41h-61c9 60 42 118 109 118c58 0 101 -37 138 -37c22 0 35 12 43 42h61zM565 460v-460h-132v194h-239v-194h-132v460c0 71 25 135 70 180c46 46 110 71 181 71c72 0 136 -25 182 -71
c45 -45 70 -109 70 -180zM433 321v142c0 74 -45 119 -120 119c-74 0 -119 -45 -119 -119v-142h239z" />
    <glyph glyph-name="Adieresis" unicode="&#xc4;" horiz-adv-x="626" 
d="M350 874h123v-111h-123v111zM162 874h123v-111h-123v111zM565 460v-460h-132v194h-239v-194h-132v460c0 71 25 135 70 180c46 46 110 71 181 71c72 0 136 -25 182 -71c45 -45 70 -109 70 -180zM433 321v142c0 74 -45 119 -120 119c-74 0 -119 -45 -119 -119v-142h239z
" />
    <glyph glyph-name="Aring" unicode="&#xc5;" horiz-adv-x="626" 
d="M319 956c59 0 106 -48 106 -106c0 -59 -47 -106 -106 -106c-58 0 -106 47 -106 106c0 58 48 106 106 106zM565 460v-460h-132v194h-239v-194h-132v460c0 71 25 135 70 180c46 46 110 71 181 71c72 0 136 -25 182 -71c45 -45 70 -109 70 -180zM433 321v142
c0 74 -45 119 -120 119c-74 0 -119 -45 -119 -119v-142h239zM319 801c27 0 48 22 48 49s-21 49 -48 49c-26 0 -47 -22 -47 -49s21 -49 47 -49z" />
    <glyph glyph-name="AE" unicode="&#xc6;" horiz-adv-x="939" 
d="M900 130v-130h-249c-132 0 -208 77 -217 195h-240v-195h-132v460c0 71 25 135 70 181c46 45 110 70 181 70c83 0 144 -32 183 -81c32 41 82 64 155 64h246v-130h-245c-63 0 -87 -24 -87 -88v-64h276v-126h-276v-67c0 -64 24 -89 87 -89h248zM194 321h239v142
c0 74 -45 119 -120 119c-74 0 -119 -45 -119 -119v-142z" />
    <glyph glyph-name="Ccedilla" unicode="&#xc7;" horiz-adv-x="708" 
d="M542 220h142c-43 -139 -157 -229 -306 -232l-33 -47c50 22 132 3 132 -72c0 -58 -55 -90 -115 -90c-48 0 -84 17 -113 40l17 36c72 -40 131 -24 131 11c0 36 -46 43 -78 28l-39 23l37 75c-163 26 -284 174 -284 358c0 203 147 362 336 362c157 0 273 -89 316 -231h-143
c-33 63 -93 108 -173 108c-114 0 -204 -109 -204 -239c0 -131 90 -240 204 -240c79 0 140 47 173 110z" />
    <glyph glyph-name="Egrave" unicode="&#xc8;" horiz-adv-x="565" 
d="M159 893h148l93 -141h-97zM194 476v-67h281v-123h-281v-67c0 -64 25 -89 88 -89h244v-130h-245c-143 0 -219 88 -219 221v252c0 133 76 221 219 221h245v-130h-244c-63 0 -88 -24 -88 -88z" />
    <glyph glyph-name="Eacute" unicode="&#xc9;" horiz-adv-x="565" 
d="M498 893l-144 -141h-97l93 141h148zM194 476v-67h281v-123h-281v-67c0 -64 25 -89 88 -89h244v-130h-245c-143 0 -219 88 -219 221v252c0 133 76 221 219 221h245v-130h-244c-63 0 -88 -24 -88 -88z" />
    <glyph glyph-name="Ecircumflex" unicode="&#xca;" horiz-adv-x="565" 
d="M286 752h-109l111 142h119l110 -142h-108l-62 83zM194 476v-67h281v-123h-281v-67c0 -64 25 -89 88 -89h244v-130h-245c-143 0 -219 88 -219 221v252c0 133 76 221 219 221h245v-130h-244c-63 0 -88 -24 -88 -88z" />
    <glyph glyph-name="Edieresis" unicode="&#xcb;" horiz-adv-x="565" 
d="M364 874h123v-111h-123v111zM176 874h123v-111h-123v111zM194 476v-67h281v-123h-281v-67c0 -64 25 -89 88 -89h244v-130h-245c-143 0 -219 88 -219 221v252c0 133 76 221 219 221h245v-130h-244c-63 0 -88 -24 -88 -88z" />
    <glyph glyph-name="Igrave" unicode="&#xcc;" horiz-adv-x="265" 
d="M-46 893h148l93 -141h-97zM199 694v-694h-132v694h132z" />
    <glyph glyph-name="Iacute" unicode="&#xcd;" horiz-adv-x="265" 
d="M316 893l-144 -141h-97l93 141h148zM199 694v-694h-132v694h132z" />
    <glyph glyph-name="Icircumflex" unicode="&#xce;" horiz-adv-x="265" 
d="M72 752h-109l111 142h119l110 -142h-108l-62 83zM199 694v-694h-132v694h132z" />
    <glyph glyph-name="Idieresis" unicode="&#xcf;" horiz-adv-x="265" 
d="M169 874h123v-111h-123v111zM-19 874h123v-111h-123v111zM199 694v-694h-132v694h132z" />
    <glyph glyph-name="Eth" unicode="&#xd0;" horiz-adv-x="691" 
d="M658 347c0 -212 -123 -347 -313 -347h-257v321h-73v123h73v250h257c193 0 313 -133 313 -347zM526 348c0 102 -32 223 -181 223h-124v-127h163v-123h-163v-198h124c157 0 181 141 181 225z" />
    <glyph glyph-name="Ntilde" unicode="&#xd1;" horiz-adv-x="626" 
d="M394 853c26 0 41 19 49 42h55c-8 -69 -50 -120 -106 -120c-55 0 -86 45 -128 45c-26 0 -41 -19 -49 -42h-54c7 69 48 120 105 120c55 0 86 -45 128 -45zM313 711c72 0 136 -25 182 -71c45 -45 70 -109 70 -180v-460h-132v463c0 74 -45 119 -120 119
c-74 0 -119 -45 -119 -119v-463h-132v460c0 71 25 135 70 180c46 46 110 71 181 71z" />
    <glyph glyph-name="Ograve" unicode="&#xd2;" horiz-adv-x="745" 
d="M176 893h148l93 -141h-97zM373 711c196 0 339 -160 339 -361c0 -202 -143 -362 -339 -362c-197 0 -340 160 -340 362c0 201 143 361 340 361zM373 113c114 0 206 107 206 237c0 129 -92 236 -206 236c-115 0 -207 -107 -207 -236c0 -130 92 -237 207 -237z" />
    <glyph glyph-name="Oacute" unicode="&#xd3;" horiz-adv-x="745" 
d="M563 893l-144 -141h-97l93 141h148zM373 711c196 0 339 -160 339 -361c0 -202 -143 -362 -339 -362c-197 0 -340 160 -340 362c0 201 143 361 340 361zM373 113c114 0 206 107 206 237c0 129 -92 236 -206 236c-115 0 -207 -107 -207 -236c0 -130 92 -237 207 -237z" />
    <glyph glyph-name="Ocircumflex" unicode="&#xd4;" horiz-adv-x="745" 
d="M312 752h-109l111 142h119l110 -142h-108l-62 83zM373 711c196 0 339 -160 339 -361c0 -202 -143 -362 -339 -362c-197 0 -340 160 -340 362c0 201 143 361 340 361zM373 113c114 0 206 107 206 237c0 129 -92 236 -206 236c-115 0 -207 -107 -207 -236
c0 -130 92 -237 207 -237z" />
    <glyph glyph-name="Otilde" unicode="&#xd5;" horiz-adv-x="745" 
d="M558 882c-8 -61 -42 -119 -104 -119c-59 0 -102 37 -141 37c-23 0 -38 -12 -45 -41h-61c9 60 42 118 109 118c58 0 101 -37 138 -37c22 0 35 12 43 42h61zM373 711c196 0 339 -160 339 -361c0 -202 -143 -362 -339 -362c-197 0 -340 160 -340 362c0 201 143 361 340 361z
M373 113c114 0 206 107 206 237c0 129 -92 236 -206 236c-115 0 -207 -107 -207 -236c0 -130 92 -237 207 -237z" />
    <glyph glyph-name="Odieresis" unicode="&#xd6;" horiz-adv-x="745" 
d="M409 874h123v-111h-123v111zM221 874h123v-111h-123v111zM373 711c196 0 339 -160 339 -361c0 -202 -143 -362 -339 -362c-197 0 -340 160 -340 362c0 201 143 361 340 361zM373 113c114 0 206 107 206 237c0 129 -92 236 -206 236c-115 0 -207 -107 -207 -236
c0 -130 92 -237 207 -237z" />
    <glyph glyph-name="multiply" unicode="&#xd7;" horiz-adv-x="514" 
d="M435 5l-178 178l-178 -178l-69 69l178 179l-178 177l69 69l178 -178l178 178l69 -69l-178 -177l178 -179z" />
    <glyph glyph-name="Oslash" unicode="&#xd8;" horiz-adv-x="745" 
d="M647 568c41 -61 65 -136 65 -218c0 -202 -142 -362 -339 -362c-85 0 -160 30 -218 81l-70 -71l-52 52l72 73c-45 61 -71 140 -71 227c0 201 142 361 339 361c90 0 168 -33 226 -88l70 70l51 -51zM201 219l306 310c-36 36 -83 57 -134 57c-114 0 -207 -107 -207 -236
c0 -48 13 -93 35 -131zM550 470l-303 -307c35 -31 78 -50 126 -50c114 0 207 107 207 237c0 43 -11 85 -30 120z" />
    <glyph glyph-name="Ugrave" unicode="&#xd9;" horiz-adv-x="626" 
d="M125 893h148l93 -141h-97zM313 -12c-71 0 -135 25 -181 70c-45 46 -70 110 -70 181v455h132v-457c0 -75 45 -120 119 -120c75 0 120 45 120 120v457h132v-455c0 -71 -25 -135 -70 -181c-46 -45 -110 -70 -182 -70z" />
    <glyph glyph-name="Uacute" unicode="&#xda;" horiz-adv-x="626" 
d="M521 893l-144 -141h-97l93 141h148zM313 -12c-71 0 -135 25 -181 70c-45 46 -70 110 -70 181v455h132v-457c0 -75 45 -120 119 -120c75 0 120 45 120 120v457h132v-455c0 -71 -25 -135 -70 -181c-46 -45 -110 -70 -182 -70z" />
    <glyph glyph-name="Ucircumflex" unicode="&#xdb;" horiz-adv-x="626" 
d="M260 752h-109l111 142h119l110 -142h-108l-62 83zM313 -12c-71 0 -135 25 -181 70c-45 46 -70 110 -70 181v455h132v-457c0 -75 45 -120 119 -120c75 0 120 45 120 120v457h132v-455c0 -71 -25 -135 -70 -181c-46 -45 -110 -70 -182 -70z" />
    <glyph glyph-name="Udieresis" unicode="&#xdc;" horiz-adv-x="626" 
d="M350 874h123v-111h-123v111zM162 874h123v-111h-123v111zM313 -12c-71 0 -135 25 -181 70c-45 46 -70 110 -70 181v455h132v-457c0 -75 45 -120 119 -120c75 0 120 45 120 120v457h132v-455c0 -71 -25 -135 -70 -181c-46 -45 -110 -70 -182 -70z" />
    <glyph glyph-name="Yacute" unicode="&#xdd;" horiz-adv-x="613" 
d="M499 893l-140 -145h-96l93 145h143zM558 694v-192c0 -72 -25 -136 -70 -181c-31 -31 -71 -53 -115 -63v-258h-133v258c-44 10 -84 32 -115 63c-45 45 -70 109 -70 181v192h133v-195c0 -75 44 -119 119 -119c74 0 119 44 119 119v195h132z" />
    <glyph glyph-name="Thorn" unicode="&#xde;" horiz-adv-x="610" 
d="M585 380c0 -130 -89 -223 -227 -223h-162v-157h-132v694h132v-90h160c145 0 229 -88 229 -224zM453 380c0 70 -37 101 -98 101h-159v-202h159c61 0 98 31 98 101z" />
    <glyph glyph-name="germandbls" unicode="&#xdf;" horiz-adv-x="590" 
d="M560 215c0 -141 -90 -228 -225 -228c-31 0 -70 8 -94 18v123c27 -11 55 -15 86 -15c66 0 101 45 101 104s-45 97 -105 97h-82v123h58c42 0 85 26 85 91c0 55 -35 91 -94 91c-56 0 -97 -44 -97 -106v-513h-133v517c0 123 95 227 229 227c136 0 227 -95 227 -206
c0 -60 -24 -110 -66 -144c72 -32 110 -99 110 -179z" />
    <glyph glyph-name="agrave" unicode="&#xe0;" horiz-adv-x="615" 
d="M103 723h147l93 -141h-97zM559 257v-257h-125v54c-39 -43 -95 -65 -157 -65c-136 0 -247 120 -247 268c0 149 109 271 265 271c155 0 264 -122 264 -271zM427 256c0 82 -59 148 -132 148s-132 -63 -132 -148c0 -82 59 -145 132 -145s132 65 132 145z" />
    <glyph glyph-name="aacute" unicode="&#xe1;" horiz-adv-x="615" 
d="M490 723l-144 -141h-97l93 141h148zM559 257v-257h-125v54c-39 -43 -95 -65 -157 -65c-136 0 -247 120 -247 268c0 149 109 271 265 271c155 0 264 -122 264 -271zM427 256c0 82 -59 148 -132 148s-132 -63 -132 -148c0 -82 59 -145 132 -145s132 65 132 145z" />
    <glyph glyph-name="acircumflex" unicode="&#xe2;" horiz-adv-x="615" 
d="M358 582l-62 83l-61 -83h-109l111 142h118l111 -142h-108zM559 257v-257h-125v54c-39 -43 -95 -65 -157 -65c-136 0 -247 120 -247 268c0 149 109 271 265 271c155 0 264 -122 264 -271zM427 256c0 82 -59 148 -132 148s-132 -63 -132 -148c0 -82 59 -145 132 -145
s132 65 132 145z" />
    <glyph glyph-name="atilde" unicode="&#xe3;" horiz-adv-x="615" 
d="M481 712c-8 -61 -42 -119 -105 -119c-58 0 -101 37 -140 37c-23 0 -38 -12 -45 -41h-62c9 60 43 119 110 119c58 0 100 -38 137 -38c23 0 35 12 43 42h62zM559 257v-257h-125v54c-39 -43 -95 -65 -157 -65c-136 0 -247 120 -247 268c0 149 109 271 265 271
c155 0 264 -122 264 -271zM427 256c0 82 -59 148 -132 148s-132 -63 -132 -148c0 -82 59 -145 132 -145s132 65 132 145z" />
    <glyph glyph-name="adieresis" unicode="&#xe4;" horiz-adv-x="615" 
d="M330 703h122v-111h-122v111zM142 703h122v-111h-122v111zM559 257v-257h-125v54c-39 -43 -95 -65 -157 -65c-136 0 -247 120 -247 268c0 149 109 271 265 271c155 0 264 -122 264 -271zM427 256c0 82 -59 148 -132 148s-132 -63 -132 -148c0 -82 59 -145 132 -145
s132 65 132 145z" />
    <glyph glyph-name="aring" unicode="&#xe5;" horiz-adv-x="615" 
d="M304 788c59 0 106 -47 106 -106c0 -58 -47 -106 -106 -106c-58 0 -106 48 -106 106c0 59 48 106 106 106zM559 257v-257h-125v54c-39 -43 -95 -65 -157 -65c-136 0 -247 120 -247 268c0 149 109 271 265 271c155 0 264 -122 264 -271zM427 256c0 82 -59 148 -132 148
s-132 -63 -132 -148c0 -82 59 -145 132 -145s132 65 132 145zM304 633c27 0 48 22 48 49c0 28 -21 50 -48 50c-26 0 -47 -22 -47 -50c0 -27 21 -49 47 -49z" />
    <glyph glyph-name="ae" unicode="&#xe6;" horiz-adv-x="981" 
d="M802 164h140c-30 -105 -125 -176 -243 -176c-62 0 -115 22 -155 58v-46h-110v49c-40 -40 -92 -60 -152 -60c-140 0 -252 120 -252 268c0 149 109 271 264 271c85 0 155 -38 200 -98c45 60 118 98 198 98c125 0 232 -77 257 -217l-362 -152c25 -33 62 -51 105 -51
s85 19 110 56zM557 270l235 98c-25 28 -62 40 -100 40c-70 0 -130 -54 -135 -138zM427 257c0 78 -60 143 -133 143c-72 0 -132 -65 -132 -143s60 -141 132 -141c73 0 133 63 133 141z" />
    <glyph glyph-name="ccedilla" unicode="&#xe7;" horiz-adv-x="571" 
d="M303 -13l-24 -39c44 17 113 -2 113 -66c0 -50 -37 -80 -92 -80c-35 0 -72 18 -96 42l18 31c19 -18 46 -27 71 -27c23 0 42 11 42 32c0 17 -15 33 -40 33c-12 0 -24 -3 -35 -13l-36 24l34 66c-135 18 -228 131 -228 266c0 150 111 272 266 272c124 0 218 -70 249 -186
h-142c-20 35 -59 58 -107 58c-73 0 -132 -65 -132 -144c0 -77 59 -141 132 -141c49 0 88 23 108 59h141c-29 -115 -120 -184 -242 -187z" />
    <glyph glyph-name="egrave" unicode="&#xe8;" horiz-adv-x="579" 
d="M108 723h147l93 -141h-97zM402 164h141c-30 -105 -121 -176 -249 -176c-146 0 -264 120 -264 269s118 271 264 271c124 0 228 -78 253 -216l-364 -153c26 -35 65 -55 110 -55c43 0 87 19 109 60zM153 264l242 102c-24 29 -60 46 -102 46c-76 0 -137 -60 -140 -148z" />
    <glyph glyph-name="eacute" unicode="&#xe9;" horiz-adv-x="579" 
d="M490 723l-144 -141h-97l93 141h148zM402 164h141c-30 -105 -121 -176 -249 -176c-146 0 -264 120 -264 269s118 271 264 271c124 0 228 -78 253 -216l-364 -153c26 -35 65 -55 110 -55c43 0 87 19 109 60zM153 264l242 102c-24 29 -60 46 -102 46
c-76 0 -137 -60 -140 -148z" />
    <glyph glyph-name="ecircumflex" unicode="&#xea;" horiz-adv-x="579" 
d="M355 582l-62 83l-61 -83h-109l111 142h118l111 -142h-108zM402 164h141c-30 -105 -121 -176 -249 -176c-146 0 -264 120 -264 269s118 271 264 271c124 0 228 -78 253 -216l-364 -153c26 -35 65 -55 110 -55c43 0 87 19 109 60zM153 264l242 102c-24 29 -60 46 -102 46
c-76 0 -137 -60 -140 -148z" />
    <glyph glyph-name="edieresis" unicode="&#xeb;" horiz-adv-x="579" 
d="M326 703h122v-111h-122v111zM138 703h122v-111h-122v111zM402 164h141c-30 -105 -121 -176 -249 -176c-146 0 -264 120 -264 269s118 271 264 271c124 0 228 -78 253 -216l-364 -153c26 -35 65 -55 110 -55c43 0 87 19 109 60zM153 264l242 102c-24 29 -60 46 -102 46
c-76 0 -137 -60 -140 -148z" />
    <glyph glyph-name="igrave" unicode="&#xec;" horiz-adv-x="259" 
d="M-46 723h147l93 -141h-97zM195 515v-515h-132v515h132z" />
    <glyph glyph-name="iacute" unicode="&#xed;" horiz-adv-x="259" 
d="M310 723l-144 -141h-97l93 141h148zM195 515v-515h-132v515h132z" />
    <glyph glyph-name="icircumflex" unicode="&#xee;" horiz-adv-x="259" 
d="M192 582l-62 83l-61 -83h-109l111 142h118l111 -142h-108zM195 515v-515h-132v515h132z" />
    <glyph glyph-name="idieresis" unicode="&#xef;" horiz-adv-x="259" 
d="M165 703h122v-111h-122v111zM-23 703h122v-111h-122v111zM195 515v-515h-132v515h132z" />
    <glyph glyph-name="eth" unicode="&#xf0;" horiz-adv-x="587" 
d="M546 257c0 -160 -115 -272 -256 -272c-142 0 -257 114 -257 265c0 172 134 267 243 267c31 0 59 -6 84 -17c-24 35 -55 68 -92 96l-74 -54l-55 34l76 55c-22 12 -45 23 -69 31l98 74c23 -11 44 -23 65 -36l62 46l55 -34l-66 -49c122 -102 186 -252 186 -406zM416 250
c0 87 -57 148 -126 148s-126 -61 -126 -148c0 -86 57 -146 126 -146s126 60 126 146z" />
    <glyph glyph-name="ntilde" unicode="&#xf1;" horiz-adv-x="573" 
d="M473 712c-8 -61 -42 -119 -105 -119c-58 0 -101 37 -140 37c-23 0 -38 -12 -45 -41h-62c9 60 43 119 110 119c58 0 100 -38 137 -38c23 0 35 12 43 42h62zM56 298c0 131 92 230 232 230c144 0 229 -95 229 -230v-298h-132v301c0 29 -10 98 -97 98
c-58 0 -100 -40 -100 -98v-301h-132v298z" />
    <glyph glyph-name="ograve" unicode="&#xf2;" horiz-adv-x="579" 
d="M101 723h147l93 -141h-97zM289 528c143 0 260 -117 260 -271s-117 -269 -260 -269s-259 115 -259 269s116 271 259 271zM289 109c70 0 127 60 127 147c0 89 -57 151 -127 151s-127 -62 -127 -151c0 -87 57 -147 127 -147z" />
    <glyph glyph-name="oacute" unicode="&#xf3;" horiz-adv-x="579" 
d="M486 723l-144 -141h-97l93 141h148zM289 528c143 0 260 -117 260 -271s-117 -269 -260 -269s-259 115 -259 269s116 271 259 271zM289 109c70 0 127 60 127 147c0 89 -57 151 -127 151s-127 -62 -127 -151c0 -87 57 -147 127 -147z" />
    <glyph glyph-name="ocircumflex" unicode="&#xf4;" horiz-adv-x="579" 
d="M355 582l-62 83l-61 -83h-109l111 142h118l111 -142h-108zM289 528c143 0 260 -117 260 -271s-117 -269 -260 -269s-259 115 -259 269s116 271 259 271zM289 109c70 0 127 60 127 147c0 89 -57 151 -127 151s-127 -62 -127 -151c0 -87 57 -147 127 -147z" />
    <glyph glyph-name="otilde" unicode="&#xf5;" horiz-adv-x="579" 
d="M465 712c-8 -61 -42 -119 -105 -119c-58 0 -101 37 -140 37c-23 0 -38 -12 -45 -41h-62c9 60 43 119 110 119c58 0 100 -38 137 -38c23 0 35 12 43 42h62zM289 528c143 0 260 -117 260 -271s-117 -269 -260 -269s-259 115 -259 269s116 271 259 271zM289 109
c70 0 127 60 127 147c0 89 -57 151 -127 151s-127 -62 -127 -151c0 -87 57 -147 127 -147z" />
    <glyph glyph-name="odieresis" unicode="&#xf6;" horiz-adv-x="579" 
d="M323 703h122v-111h-122v111zM135 703h122v-111h-122v111zM289 528c143 0 260 -117 260 -271s-117 -269 -260 -269s-259 115 -259 269s116 271 259 271zM289 109c70 0 127 60 127 147c0 89 -57 151 -127 151s-127 -62 -127 -151c0 -87 57 -147 127 -147z" />
    <glyph glyph-name="divide" unicode="&#xf7;" 
d="M178 413v-131h-132v131h132z" />
    <glyph glyph-name="oslash" unicode="&#xf8;" horiz-adv-x="579" 
d="M549 256c0 -148 -116 -269 -259 -269c-61 0 -117 22 -161 58l-46 -46l-50 50l47 48c-31 45 -50 100 -50 159c0 150 116 272 260 272c60 0 115 -22 159 -58l46 46l51 -49l-48 -49c32 -45 51 -101 51 -162zM174 192l185 187c-20 14 -44 23 -69 23c-72 0 -130 -65 -130 -146
c0 -23 5 -45 14 -64zM419 256c0 24 -5 47 -15 67l-185 -187c20 -14 44 -23 71 -23c71 0 129 65 129 143z" />
    <glyph glyph-name="ugrave" unicode="&#xf9;" horiz-adv-x="573" 
d="M104 723h147l93 -141h-97zM517 218c0 -131 -92 -230 -232 -230c-144 0 -229 95 -229 230v297h132v-301c0 -29 10 -98 97 -98c58 0 100 41 100 98v301h132v-297z" />
    <glyph glyph-name="uacute" unicode="&#xfa;" horiz-adv-x="573" 
d="M486 723l-144 -141h-97l93 141h148zM517 218c0 -131 -92 -230 -232 -230c-144 0 -229 95 -229 230v297h132v-301c0 -29 10 -98 97 -98c58 0 100 41 100 98v301h132v-297z" />
    <glyph glyph-name="ucircumflex" unicode="&#xfb;" horiz-adv-x="573" 
d="M348 582l-62 83l-61 -83h-109l111 142h118l111 -142h-108zM517 218c0 -131 -92 -230 -232 -230c-144 0 -229 95 -229 230v297h132v-301c0 -29 10 -98 97 -98c58 0 100 41 100 98v301h132v-297z" />
    <glyph glyph-name="udieresis" unicode="&#xfc;" horiz-adv-x="573" 
d="M322 703h122v-111h-122v111zM134 703h122v-111h-122v111zM517 218c0 -131 -92 -230 -232 -230c-144 0 -229 95 -229 230v297h132v-301c0 -29 10 -98 97 -98c58 0 100 41 100 98v301h132v-297z" />
    <glyph glyph-name="yacute" unicode="&#xfd;" horiz-adv-x="573" 
d="M467 746l-139 -144h-98l93 144h144zM517 515v-536c0 -137 -94 -231 -230 -231c-113 0 -206 74 -224 180h137c10 -33 42 -53 87 -53c72 0 98 52 98 100v55c-32 -27 -72 -42 -119 -42c-126 0 -210 90 -210 226v301h132v-301c0 -29 10 -98 97 -98c58 0 100 40 100 98v301
h132z" />
    <glyph glyph-name="thorn" unicode="&#xfe;" horiz-adv-x="624" 
d="M594 259c0 -153 -110 -270 -245 -270c-60 0 -112 22 -151 61v-279h-133v923h133v-227c39 38 91 60 151 60c135 0 245 -116 245 -268zM462 259c0 82 -59 145 -132 145s-132 -65 -132 -145c0 -81 59 -147 132 -147s132 63 132 147z" />
    <glyph glyph-name="ydieresis" unicode="&#xff;" horiz-adv-x="572" 
d="M317 703h122v-111h-122v111zM129 703h122v-111h-122v111zM516 515v-536c0 -139 -91 -231 -229 -231c-113 0 -206 74 -224 180h137c8 -38 42 -57 87 -57c72 0 97 51 97 99v60c-31 -26 -71 -42 -118 -42c-126 0 -210 91 -210 226v301h132v-301c0 -29 10 -101 96 -101
c59 0 100 43 100 101v301h132z" />
    <glyph glyph-name="dotlessi" unicode="&#x131;" horiz-adv-x="259" 
d="M195 515v-515h-132v515h132z" />
    <glyph glyph-name="Lslash" unicode="&#x141;" horiz-adv-x="597" 
d="M580 123v-123h-478v260l-87 -52v94l87 52v340h132v-260l135 81v-94l-135 -81v-217h346z" />
    <glyph glyph-name="lslash" unicode="&#x142;" horiz-adv-x="548" 
d="M531 130v-130h-209c-143 0 -219 86 -219 219v41l-86 -52v94l86 52v340h132v-260l136 81v-94l-136 -81v-119c0 -64 25 -91 88 -91h208z" />
    <glyph glyph-name="OE" unicode="&#x152;" horiz-adv-x="1086" 
d="M1047 130v-130h-249c-90 0 -153 35 -188 95c-57 -66 -138 -107 -237 -107c-198 0 -340 160 -340 362c0 201 142 361 340 361c100 0 182 -41 239 -108c35 57 96 91 186 91h245v-130h-245c-63 0 -86 -24 -86 -88v-64h276v-126h-276v-67c0 -64 23 -89 86 -89h249zM580 349
c-2 130 -93 237 -207 237c-115 0 -208 -107 -208 -236s93 -237 208 -237c114 0 205 107 207 236z" />
    <glyph glyph-name="oe" unicode="&#x153;" horiz-adv-x="962" 
d="M478 434c48 58 118 94 196 94c124 0 232 -78 256 -218l-362 -151c25 -33 63 -51 105 -51c45 0 85 19 110 56h140c-33 -107 -130 -177 -248 -177c-78 0 -149 36 -196 93c-44 -57 -111 -93 -190 -93c-143 0 -259 121 -259 269c0 150 116 272 259 272c79 0 146 -36 189 -94z
M538 270l235 98c-23 27 -61 40 -100 40c-70 0 -129 -54 -135 -138zM289 116c71 0 128 63 128 140c0 79 -57 144 -128 144c-70 0 -127 -65 -127 -144c0 -77 57 -140 127 -140z" />
    <glyph glyph-name="Scaron" unicode="&#x160;" horiz-adv-x="648" 
d="M493 919l-110 -142h-119l-111 142h109l61 -83l62 83h108zM322 711c182 0 266 -118 266 -227h-132c0 59 -50 105 -134 105c-71 0 -135 -27 -135 -81c0 -47 46 -67 153 -88c165 -32 269 -72 269 -214c0 -134 -113 -219 -288 -219c-135 0 -284 76 -284 243h132
c0 -82 83 -121 152 -121c76 0 156 26 156 93c0 44 -36 73 -164 97s-258 62 -258 211c0 119 104 201 267 201z" />
    <glyph glyph-name="scaron" unicode="&#x161;" horiz-adv-x="526" 
d="M442 740l-110 -141h-119l-111 141h109l61 -82l62 82h108zM495 162c0 -102 -94 -175 -226 -175c-131 0 -228 69 -244 181h134c19 -41 71 -60 110 -60c53 0 98 20 98 46c0 29 -23 42 -113 56c-92 14 -215 38 -215 153c0 81 71 165 220 165c118 0 206 -64 223 -161h-137
c-8 20 -37 43 -86 43c-61 0 -91 -22 -91 -42c0 -26 43 -35 107 -45c128 -21 220 -49 220 -161z" />
    <glyph glyph-name="Ydieresis" unicode="&#x178;" horiz-adv-x="613" 
d="M345 874h123v-111h-123v111zM157 874h123v-111h-123v111zM558 694v-192c0 -72 -25 -136 -70 -181c-31 -31 -71 -53 -115 -63v-258h-133v258c-44 10 -84 32 -115 63c-45 45 -70 109 -70 181v192h133v-195c0 -75 44 -119 119 -119c74 0 119 44 119 119v195h132z" />
    <glyph glyph-name="Zcaron" unicode="&#x17d;" horiz-adv-x="550" 
d="M449 919l-111 -142h-118l-111 142h108l62 -83l61 83h109zM524 123v-123h-499v118l333 450v3h-322v123h479v-118l-333 -450v-3h342z" />
    <glyph glyph-name="zcaron" unicode="&#x17e;" horiz-adv-x="493" 
d="M421 740l-110 -141h-119l-111 141h109l61 -82l62 82h108zM202 124h269v-124h-450v114l264 274v3h-253v124h430v-118l-260 -270v-3z" />
    <glyph glyph-name="florin" unicode="&#x192;" horiz-adv-x="470" 
d="M466 683v-110c-72 18 -123 5 -141 -78l-8 -40h85v-74h-100l-47 -218c-28 -134 -123 -188 -251 -152v110c73 -17 124 -5 141 79l38 181h-84v74h100l16 76c29 135 124 189 251 152z" />
    <glyph glyph-name="circumflex" unicode="&#x2c6;" horiz-adv-x="417" 
d="M268 582l-62 83l-61 -83h-109l111 142h118l111 -142h-108z" />
    <glyph glyph-name="caron" unicode="&#x2c7;" horiz-adv-x="420" 
d="M380 724l-111 -142h-118l-111 142h108l62 -83l61 83h109z" />
    <glyph glyph-name="breve" unicode="&#x2d8;" horiz-adv-x="390" 
d="M350 723c-6 -76 -66 -132 -155 -132s-149 56 -155 132h69c10 -35 40 -60 86 -60s77 25 86 60h69z" />
    <glyph glyph-name="dotaccent" unicode="&#x2d9;" horiz-adv-x="203" 
d="M40 703h123v-111h-123v111z" />
    <glyph glyph-name="ring" unicode="&#x2da;" horiz-adv-x="295" 
d="M148 798c58 0 106 -48 106 -107c0 -58 -48 -106 -106 -106s-106 48 -106 106c0 59 48 107 106 107zM148 642c26 0 48 22 48 49s-22 49 -48 49s-48 -22 -48 -49s22 -49 48 -49z" />
    <glyph glyph-name="ogonek" unicode="&#x2db;" horiz-adv-x="249" 
d="M209 -135v-62c-56 -36 -132 -32 -159 17c-26 45 -6 127 87 180h68c-68 -44 -98 -96 -81 -129c11 -24 52 -26 85 -6z" />
    <glyph glyph-name="tilde" unicode="&#x2dc;" horiz-adv-x="417" 
d="M383 712c-8 -61 -42 -119 -105 -119c-58 0 -101 37 -140 37c-23 0 -38 -12 -45 -41h-62c9 60 43 119 110 119c58 0 100 -38 137 -38c23 0 35 12 43 42h62z" />
    <glyph glyph-name="hungarumlaut" unicode="&#x2dd;" horiz-adv-x="456" 
d="M416 723l-110 -141h-82l66 141h126zM233 723l-111 -141h-82l66 141h127z" />
    <glyph glyph-name="Delta" unicode="&#x394;" 
d="M178 413v-131h-132v131h132z" />
    <glyph glyph-name="Delta" unicode="&#x2206;" 
d="M178 413v-131h-132v131h132z" />
    <glyph glyph-name="Omega" unicode="&#x3a9;" 
d="M178 413v-131h-132v131h132z" />
    <glyph glyph-name="Omega" unicode="&#x2126;" 
d="M178 413v-131h-132v131h132z" />
    <glyph glyph-name="pi" unicode="&#x3c0;" 
d="M178 413v-131h-132v131h132z" />
    <glyph glyph-name="endash" unicode="&#x2013;" horiz-adv-x="606" 
d="M31 216v123h544v-123h-544z" />
    <glyph glyph-name="emdash" unicode="&#x2014;" horiz-adv-x="951" 
d="M31 216v123h889v-123h-889z" />
    <glyph glyph-name="quoteleft" unicode="&#x2018;" horiz-adv-x="203" 
d="M169 547v-126h-135v135c0 85 51 131 122 139v-56c-39 -9 -58 -38 -58 -80v-12h71z" />
    <glyph glyph-name="quoteright" unicode="&#x2019;" horiz-adv-x="203" 
d="M169 694v-135c0 -84 -51 -131 -122 -138v56c39 8 58 38 58 80v11h-71v126h135z" />
    <glyph glyph-name="quotesinglbase" unicode="&#x201a;" horiz-adv-x="200" 
d="M166 131v-146c0 -87 -51 -125 -120 -123v48c39 2 59 30 59 72v18h-71v131h132z" />
    <glyph glyph-name="quotedblleft" unicode="&#x201c;" horiz-adv-x="426" 
d="M392 547v-126h-135v135c0 85 51 131 122 139v-56c-39 -9 -58 -38 -58 -80v-12h71zM98 547h71v-126h-135v135c0 85 51 131 122 139v-56c-39 -9 -58 -38 -58 -80v-12z" />
    <glyph glyph-name="quotedblright" unicode="&#x201d;" horiz-adv-x="426" 
d="M392 694v-135c0 -84 -51 -131 -122 -138v56c39 8 58 38 58 80v11h-71v126h135zM34 694h135v-135c0 -84 -51 -131 -122 -138v56c39 8 58 38 58 80v11h-71v126z" />
    <glyph glyph-name="quotedblbase" unicode="&#x201e;" horiz-adv-x="423" 
d="M257 131h132v-146c0 -87 -51 -125 -120 -123v48c39 2 59 30 59 72v18h-71v131zM34 131h132v-146c0 -87 -50 -125 -120 -123v48c40 2 60 30 60 72v18h-72v131z" />
    <glyph glyph-name="dagger" unicode="&#x2020;" horiz-adv-x="389" 
d="M351 470h-104v-271h-106v271h-103v99h103v125h106v-125h104v-99z" />
    <glyph glyph-name="daggerdbl" unicode="&#x2021;" horiz-adv-x="389" 
d="M247 470v-132h104v-99h-104v-125h-106v125h-103v99h103v132h-103v99h103v125h106v-125h104v-99h-104z" />
    <glyph glyph-name="bullet" unicode="&#x2022;" horiz-adv-x="313" 
d="M157 258c-60 0 -107 47 -107 107c0 58 47 106 107 106c58 0 106 -48 106 -106c0 -60 -48 -107 -106 -107z" />
    <glyph glyph-name="ellipsis" unicode="&#x2026;" horiz-adv-x="864" 
d="M818 141v-141h-142v141h142zM503 141v-141h-142v141h142zM188 141v-141h-142v141h142z" />
    <glyph glyph-name="guilsinglleft" unicode="&#x2039;" horiz-adv-x="210" 
d="M23 349l158 136v-105l-100 -80l100 -82v-105l-158 137v99z" />
    <glyph glyph-name="guilsinglright" unicode="&#x203a;" horiz-adv-x="210" 
d="M188 349v-99l-159 -137v105l100 82l-100 80v105z" />
    <glyph glyph-name="fraction" unicode="&#x2044;" 
d="M178 413v-131h-132v131h132z" />
    <glyph glyph-name="fraction" unicode="&#x2215;" 
d="M178 413v-131h-132v131h132z" />
    <glyph glyph-name="trademark" unicode="&#x2122;" horiz-adv-x="920" 
d="M870 694v-436h-95v264l-87 -264h-104l-86 263v-263h-95v436h127l106 -317l107 317h127zM35 694h317v-93h-109v-343h-99v343h-109v93z" />
    <glyph glyph-name="partialdiff" unicode="&#x2202;" 
d="M178 413v-131h-132v131h132z" />
    <glyph glyph-name="product" unicode="&#x220f;" 
d="M178 413v-131h-132v131h132z" />
    <glyph glyph-name="summation" unicode="&#x2211;" 
d="M178 413v-131h-132v131h132z" />
    <glyph glyph-name="radical" unicode="&#x221a;" 
d="M178 413v-131h-132v131h132z" />
    <glyph glyph-name="integral" unicode="&#x222b;" 
d="M178 413v-131h-132v131h132z" />
    <glyph glyph-name="approxequal" unicode="&#x2248;" 
d="M178 413v-131h-132v131h132z" />
    <glyph glyph-name="lessequal" unicode="&#x2264;" 
d="M178 413v-131h-132v131h132z" />
    <glyph glyph-name="greaterequal" unicode="&#x2265;" 
d="M178 413v-131h-132v131h132z" />
    <glyph glyph-name="lozenge" unicode="&#x25ca;" 
d="M178 413v-131h-132v131h132z" />
    <glyph glyph-name="apple" unicode="&#xe000;" horiz-adv-x="904" 
d="M863 347c0 -210 -174 -341 -343 -346l-12 -1v682v13l12 -1c169 -5 343 -136 343 -347zM387 694h92v-125h-92c-131 0 -214 -101 -214 -222s83 -222 214 -222h92v-125h-92c-210 0 -346 161 -346 347s136 347 346 347zM573 664c40 -32 77 -84 102 -149c31 11 59 25 86 42
c-50 56 -117 93 -188 107zM532 488c43 3 84 9 121 20c-29 75 -75 130 -121 156v-176zM683 492c12 -40 20 -85 21 -133h135c-2 71 -26 131 -63 180c-29 -19 -60 -35 -93 -47zM532 359h149c-1 46 -9 88 -21 126c-39 -11 -82 -18 -128 -20v-106zM532 230c46 -2 89 -9 128 -21
c12 38 20 81 21 127h-149v-106zM839 336h-135c-1 -49 -9 -93 -21 -134c33 -11 64 -27 93 -46c37 48 61 109 63 180zM532 31c46 25 92 81 121 156c-37 11 -78 17 -121 19v-175zM761 138c-27 17 -55 31 -86 42c-25 -65 -62 -117 -102 -149c71 14 138 51 188 107z" />
    <glyph glyph-name="r.alt" unicode="&#xe001;" horiz-adv-x="545" 
d="M56 298c0 131 92 230 232 230c144 0 229 -95 229 -230v-23h-132v26c0 29 -10 98 -97 98c-58 0 -100 -40 -100 -98v-301h-132v298z" />
    </font>
</defs>
</svg>
